<?xml version="1.0" encoding="utf-8"?>
<!-- Generator: Adobe Illustrator 25.4.1, SVG Export Plug-In . SVG Version: 6.00 Build 0)  -->
<svg version="1.1" id="图层_1" xmlns="http://www.w3.org/2000/svg" xmlns:xlink="http://www.w3.org/1999/xlink" x="0px" y="0px"
	 viewBox="0 0 360 360" style="enable-background:new 0 0 360 360;" xml:space="preserve">
<style type="text/css">
	.st0{fill:none;stroke:#547ED3;stroke-width:38;stroke-linecap:round;stroke-linejoin:round;stroke-miterlimit:50;}
	.st1{fill:#547ED3;}
	.st2{fill:none;stroke:#547ED3;stroke-width:20;stroke-linecap:round;stroke-miterlimit:10;}
</style>
<g>
	<path class="st0" d="M300.46,154.86c0,0,44.86,116.13,0,155.85s-210.19,35.28-241.95,0s0-155.85,0-155.85"/>
	<g>
		<g>
			<path class="st1" d="M17.19,289.3l-3.47-1.26c-9.42-3.43-14.28-13.85-10.85-23.27l19.99-54.91c3.43-9.42,13.85-14.28,23.27-10.85
				l3.47,1.26c9.42,3.43,14.28,13.85,10.85,23.27l-19.99,54.91C37.03,287.88,26.62,292.73,17.19,289.3z"/>
		</g>
		<g>
			<path class="st1" d="M346.29,288.04l-3.47,1.26c-9.42,3.43-19.84-1.43-23.27-10.85l-19.99-54.91
				c-3.43-9.42,1.43-19.84,10.85-23.27l3.47-1.26c9.42-3.43,19.84,1.43,23.27,10.85l19.99,54.91
				C360.57,274.18,355.71,284.61,346.29,288.04z"/>
		</g>
	</g>
	<g>
		<path class="st1" d="M179.51,228.15c-9.39,0-17,7.61-17,17v35.5c0,9.39,7.61,17,17,17s17-7.61,17-17v-35.5
			C196.51,235.76,188.9,228.15,179.51,228.15L179.51,228.15z"/>
	</g>
	<g>
		<path class="st1" d="M109.76,88.16c-38.11,0-69,30.89-69,69s30.89,69,69,69s69-30.89,69-69S147.87,88.16,109.76,88.16z
			 M109.76,205.65c-9.66,0-17.5-7.84-17.5-17.5s7.84-17.5,17.5-17.5s17.5,7.84,17.5,17.5S119.42,205.65,109.76,205.65z"/>
	</g>
	<g>
		<path class="st1" d="M249.26,88.16c-38.11,0-69,30.89-69,69s30.89,69,69,69s69-30.89,69-69S287.36,88.16,249.26,88.16z
			 M249.26,205.65c-9.66,0-17.5-7.84-17.5-17.5s7.84-17.5,17.5-17.5s17.5,7.84,17.5,17.5S258.92,205.65,249.26,205.65z"/>
	</g>
	<g>
		<line class="st2" x1="179.62" y1="60.81" x2="179.62" y2="152.15"/>
		<circle class="st1" cx="179.62" cy="33.16" r="30"/>
	</g>
</g>
</svg>
